<?xml version="1.0" standalone="no"?>
<!DOCTYPE svg PUBLIC "-//W3C//DTD SVG 20010904//EN"
 "http://www.w3.org/TR/2001/REC-SVG-20010904/DTD/svg10.dtd">
<svg version="1.0" xmlns="http://www.w3.org/2000/svg"
 width="219.000000pt" height="109.000000pt" viewBox="0 0 219.000000 109.000000"
 preserveAspectRatio="xMidYMid meet">

<g transform="translate(0.000000,109.000000) scale(0.100000,-0.100000)"
fill="#000000" stroke="none">
<path d="M0 545 l0 -545 1095 0 1095 0 0 545 0 545 -1095 0 -1095 0 0 -545z
m414 368 c15 -32 31 -65 36 -73 5 -8 20 -36 32 -62 l23 -48 182 0 181 0 30 58
c16 31 41 80 56 108 14 29 26 57 26 63 0 6 17 11 40 11 l40 0 0 -120 0 -120
130 0 c72 0 130 2 130 5 0 5 -15 40 -54 128 -14 32 -26 63 -26 70 0 7 -5 18
-12 25 -9 9 -1 12 39 12 50 0 51 0 68 -42 9 -24 27 -65 39 -93 13 -27 28 -62
34 -77 l12 -28 194 0 194 0 41 103 c23 56 45 109 50 117 9 16 101 28 101 13 0
-5 -8 -24 -19 -43 -10 -19 -23 -51 -30 -71 -6 -20 -20 -53 -31 -75 l-21 -39
51 -3 c27 -2 50 -7 50 -13 0 -5 -340 -9 -900 -9 -593 0 -900 3 -900 10 0 6 25
10 55 10 l55 0 0 120 0 120 38 0 c37 0 40 -2 66 -57z m-218 -384 c16 -45 20
-48 31 -33 10 14 13 14 13 3 0 -8 -5 -21 -10 -29 -8 -13 -11 -12 -24 5 -9 11
-16 28 -16 37 0 37 -19 26 -23 -14 -3 -34 -4 -30 -5 20 -1 34 2 62 7 62 5 0
17 -23 27 -51z m72 -11 c-1 -43 -3 -51 -5 -25 -2 20 -8 35 -14 32 -13 -9 -11
12 3 35 7 11 14 20 15 20 2 0 2 -28 1 -62z m209 31 c15 -32 0 -89 -24 -89 -12
0 -12 2 1 16 9 8 16 30 16 49 0 25 -5 34 -22 38 -50 14 -79 -44 -41 -85 9 -10
11 -18 5 -18 -15 0 -32 33 -32 64 0 57 73 76 97 25z m133 -11 c17 -54 28 -67
36 -42 9 29 38 84 41 80 7 -7 -42 -116 -52 -116 -6 0 -19 27 -31 60 -12 33
-18 60 -14 60 4 0 13 -19 20 -42z m187 -50 c-2 -18 -4 -4 -4 32 0 36 2 50 4
33 2 -18 2 -48 0 -65z m166 85 c-25 -3 -33 -9 -33 -24 0 -14 7 -19 25 -19 14
0 25 -4 25 -10 0 -5 -11 -10 -25 -10 -18 0 -25 -5 -25 -19 0 -15 8 -21 33 -24
31 -4 31 -4 -5 -5 l-38 -2 0 60 0 60 38 -2 c36 -1 36 -1 5 -5z m287 -55 c9
-27 30 -39 30 -18 0 19 30 83 36 78 3 -4 -4 -26 -15 -51 -12 -25 -21 -51 -21
-56 0 -22 -21 -10 -31 17 -6 15 -15 35 -20 44 -5 10 -9 26 -8 35 0 16 2 15 10
-2 5 -11 13 -32 19 -47z m223 55 c-25 -3 -33 -9 -33 -24 0 -14 7 -19 25 -19
14 0 25 -4 25 -10 0 -5 -11 -10 -25 -10 -18 0 -25 -5 -25 -19 0 -15 8 -21 33
-24 28 -3 26 -4 -10 -5 l-43 -2 0 60 0 60 43 -2 c36 -1 38 -2 10 -5z m203 -4
c4 -8 -3 -9 -25 -4 -27 6 -31 4 -31 -14 0 -24 37 -29 59 -8 11 10 12 9 4 -7
-6 -10 -8 -28 -6 -40 4 -20 4 -20 -10 -3 -21 26 -47 22 -47 -8 0 -14 -4 -25
-10 -25 -6 0 -10 27 -10 60 l0 60 34 0 c19 0 38 -5 42 -11z m194 0 c12 -9 10
-10 -8 -6 -57 13 -71 -22 -16 -42 27 -10 34 -17 32 -34 -2 -13 -11 -23 -23
-24 -11 -2 -14 0 -7 3 21 10 13 33 -18 49 -31 16 -34 22 -24 49 7 18 42 21 64
5z m163 4 c-25 -3 -33 -9 -33 -24 0 -15 7 -19 31 -19 17 0 28 -4 24 -10 -3 -5
-17 -10 -31 -10 -17 0 -24 -6 -24 -19 0 -15 8 -21 33 -24 31 -4 31 -4 -5 -5
l-38 -2 0 60 0 60 38 -2 c36 -1 36 -1 5 -5z m-203 -109 c0 -2 -7 -4 -15 -4 -8
0 -15 4 -15 10 0 5 7 7 15 4 8 -4 15 -8 15 -10z m170 -134 c0 -6 -51 -10 -133
-10 l-132 0 -16 -33 c-9 -17 -22 -45 -29 -62 -37 -90 -41 -95 -80 -95 l-38 0
-38 95 -39 95 -217 0 -218 0 0 -95 0 -95 -40 0 -40 0 0 95 0 96 -117 -3 c-111
-3 -119 -4 -128 -25 -15 -34 -77 -33 -93 2 -11 25 -13 25 -132 25 l-120 0 0
-95 0 -95 -40 0 -40 0 0 95 0 95 -55 0 c-30 0 -55 5 -55 10 0 7 307 10 900 10
593 0 900 -3 900 -10z"/>
<path d="M390 752 c0 -14 6 -22 16 -22 14 0 15 3 3 18 -7 9 -15 19 -16 21 -2
2 -3 -5 -3 -17z"/>
<path d="M967 756 c-4 -10 -5 -21 -2 -24 9 -9 17 6 13 25 -3 17 -4 17 -11 -1z"/>
<path d="M1598 295 c7 -37 19 -39 31 -5 9 28 8 30 -13 30 -19 0 -22 -4 -18
-25z"/>
</g>
</svg>
